solid Mesh
facet normal 0.0 -1.0 0.0
    outer loop
        vertex 0.5 0.0 0.8660254037844386
        vertex 0.0 0.0 0.0
        vertex 2.0 0.0 0.0
    endloop
endfacet
facet normal 0.0 -1.0 0.0
    outer loop
        vertex 0.5 0.0 0.8660254037844386
        vertex 2.0 0.0 0.0
        vertex 1.5 0.0 0.8660254037844386
    endloop
endfacet
facet normal 0.0 0.0 -1.0
    outer loop
        vertex 2.0 0.0 0.0
        vertex 0.0 0.0 0.0
        vertex 0.0 1.0 0.0
    endloop
endfacet
facet normal 0.0 0.0 -1.0
    outer loop
        vertex 2.0 0.0 0.0
        vertex 0.0 1.0 0.0
        vertex 2.0 1.0 0.0
    endloop
endfacet
facet normal 0.8660254037844386 0.0 0.5
    outer loop
        vertex 1.5 0.0 0.8660254037844386
        vertex 2.0 0.0 0.0
        vertex 2.0 1.0 0.0
    endloop
endfacet
facet normal 0.8660254037844386 0.0 0.5
    outer loop
        vertex 1.5 0.0 0.8660254037844386
        vertex 2.0 1.0 0.0
        vertex 1.5 1.0 0.8660254037844386
    endloop
endfacet
facet normal 0.0 0.0 1.0
    outer loop
        vertex 0.5 0.0 0.8660254037844386
        vertex 1.5 0.0 0.8660254037844386
        vertex 1.5 1.0 0.8660254037844386
    endloop
endfacet
facet normal 0.0 0.0 1.0
    outer loop
        vertex 0.5 0.0 0.8660254037844386
        vertex 1.5 1.0 0.8660254037844386
        vertex 0.5 1.0 0.8660254037844386
    endloop
endfacet
facet normal -0.8660254037844386 0.0 0.5
    outer loop
        vertex 0.0 0.0 0.0
        vertex 0.5 0.0 0.8660254037844386
        vertex 0.5 1.0 0.8660254037844386
    endloop
endfacet
facet normal -0.8660254037844386 0.0 0.5
    outer loop
        vertex 0.0 0.0 0.0
        vertex 0.5 1.0 0.8660254037844386
        vertex 0.0 1.0 0.0
    endloop
endfacet
facet normal 0.0 1.0 0.0
    outer loop
        vertex 0.5 1.0 0.8660254037844386
        vertex 1.5 1.0 0.8660254037844386
        vertex 2.0 1.0 0.0
    endloop
endfacet
facet normal 0.0 1.0 0.0
    outer loop
        vertex 0.5 1.0 0.8660254037844386
        vertex 2.0 1.0 0.0
        vertex 0.0 1.0 0.0
    endloop
endfacet
endsolid Mesh
